<svg xmlns="http://www.w3.org/2000/svg" xmlns:xlink="http://www.w3.org/1999/xlink" id="Layer_1" x="0" y="0" version="1.1" viewBox="0 0 512 167.4" style="enable-background:new 0 0 512 167.4" xml:space="preserve"><style type="text/css">.st0{enable-background:new}.st1{fill:#fff}</style><g class="st0"><path d="M78.8,141.2l4.5-6.3c2.6,2.2,5.8,3.7,9.7,3.7c3.2,0,5.4-0.9,5.4-2.7c0-1.9-2.6-2.6-6.1-3.4 c-5.4-1.2-12.5-2.8-12.5-10.8c0-7.3,6.4-10.9,14.1-10.9c6,0,10.3,2.1,13.5,4.5l-4.5,6.3c-2.5-1.7-5.3-3-8.6-3 c-2.6,0-4.7,0.7-4.7,2.5c0,1.9,2.6,2.5,6.1,3.3c5.3,1.1,12.5,2.8,12.5,10.7c0,7.4-6.5,11.4-14.8,11.4 C87,146.3,82.2,143.9,78.8,141.2z" class="st1"/><path d="M147.2,131.7h-25.3c1.2,3.8,4.5,6.1,8.7,6.1c3.9,0,6.9-1.8,8.5-3.8l6.5,5.7c-3.6,4.1-9,6.6-15.3,6.6 c-10.8,0-18.9-7.7-18.9-18c0-10,7.8-17.6,18.1-17.6c10.2,0,17.8,7.6,17.8,17.9C147.4,129.6,147.3,130.8,147.2,131.7z M121.8,125.3 H137c-1.1-3.8-4-6.1-7.6-6.1S122.8,121.5,121.8,125.3z" class="st1"/><path d="M173.3,111v10h-1.5c-5.9,0-9.2,3.4-9.2,8.6v15.8h-9.7v-33.9h9.7v3.9c2.4-2.8,5.5-4.4,9.2-4.4H173.3z" class="st1"/><path d="M213.2,111.6l-13.8,33.9h-10l-13.8-33.9h11.1l7.8,21.6l7.8-21.6H213.2z" class="st1"/><path d="M249.1,131.7h-25.3c1.2,3.8,4.5,6.1,8.7,6.1c3.9,0,6.9-1.8,8.5-3.8l6.5,5.7c-3.6,4.1-9,6.6-15.3,6.6 c-10.8,0-18.9-7.7-18.9-18c0-10,7.8-17.6,18.1-17.6c10.2,0,17.8,7.6,17.8,17.9C249.3,129.6,249.2,130.8,249.1,131.7z M223.7,125.3 H239c-1.1-3.8-4-6.1-7.6-6.1S224.7,121.5,223.7,125.3z" class="st1"/><path d="M275.2,111v10h-1.5c-5.9,0-9.2,3.4-9.2,8.6v15.8h-9.7v-33.9h9.7v3.9c2.4-2.8,5.5-4.4,9.2-4.4H275.2z" class="st1"/><path d="M327.6,123.7v21.8h-9.7v-18.6c0-4.1-2.6-6.8-6.5-6.8c-4.2,0-7.1,2.7-7.1,6.9v18.4h-9.7V97.6h9.7v17.6 c2.7-2.9,6.1-4.4,10.3-4.4C322.4,110.8,327.6,115.9,327.6,123.7z" class="st1"/><path d="M332.7,128.5c0-10.1,7.8-17.8,18.3-17.8s18.3,7.6,18.3,17.8s-7.8,17.8-18.3,17.8S332.7,138.6,332.7,128.5z M359.3,128.5c0-4.8-3.5-8.4-8.3-8.4s-8.3,3.6-8.3,8.4s3.5,8.4,8.3,8.4S359.3,133.3,359.3,128.5z" class="st1"/><path d="M372.4,141.2l4.5-6.3c2.6,2.2,5.8,3.7,9.7,3.7c3.2,0,5.4-0.9,5.4-2.7c0-1.9-2.6-2.6-6.1-3.4 c-5.4-1.2-12.5-2.8-12.5-10.8c0-7.3,6.4-10.9,14.1-10.9c6,0,10.3,2.1,13.5,4.5l-4.5,6.3c-2.5-1.7-5.3-3-8.6-3 c-2.6,0-4.7,0.7-4.7,2.5c0,1.9,2.6,2.5,6.1,3.3c5.3,1.1,12.5,2.8,12.5,10.7c0,7.4-6.5,11.4-14.8,11.4 C380.5,146.3,375.7,143.9,372.4,141.2z" class="st1"/><path d="M419.1,120.4v12.4c0,2.6,1.4,4.1,4.3,4.1c1.7,0,3.2-0.5,4.5-1.2v9.1c-2,1-3.9,1.5-6.5,1.5 c-8.2,0-11.9-4.9-11.9-11.8v-14h-5.1v-8.8h5.1v-8.4h9.7v8.4h8.7v8.8H419.1z" class="st1"/></g><g><path d="M333.3,88.2C322.6,79,312.2,70,301.8,61.1c-0.2,0.1-0.4,0.2-0.5,0.2c0,2.3,0,4.5,0,6.8c0,6.4-0.1,12.7,0,19.1 c0,1.4-0.4,1.8-1.7,1.7c-2.1-0.1-4.1-0.1-6.2,0c-0.9,0-1.3-0.3-1.3-1.3c0.1-6.3,0.2-12.5,0.2-18.8c0-5-0.2-10-0.2-15.1 c0-4.1,0-8.2,0-12.2c0-0.5,0.1-1,0.1-2c10.8,9.2,21.2,18.2,32,27.5c0-9.1,0-17.9,0-27.1c0.8,0.6,1.1,0.7,1.4,1 c2.5,2.4,5,4.7,7.3,7.1c0.7,0.7,1.1,1.8,1.1,2.8c0,5.9-0.1,11.7-0.3,17.6c-0.1,3-0.4,6-0.5,9c0,3.1,0.2,6.1,0.3,9.2 C333.5,86.9,333.4,87.3,333.3,88.2z" class="st1"/><path d="M278.3,63.1c0.9,12.4-9.7,26-25.3,25.9c-13.4-0.1-24.5-11.1-24.6-24.7s11-24.8,24.5-25.2 C266.2,38.7,278.6,49.9,278.3,63.1z M269.9,64.1c0.1-9-7.4-17-16.3-16.8c-9,0.2-16.6,7.6-16.7,17.2c-0.1,9.3,7.9,16.1,16.4,16.3 C262.4,81,270,73.1,269.9,64.1z M233.5,77.9c0.2-0.1,0.4-0.3,0.6-0.4c-0.8-1.3-1.7-2.5-2.5-3.8c-0.1,0.1-0.3,0.2-0.4,0.3 C231.9,75.3,232.7,76.6,233.5,77.9z" class="st1"/><path d="M216.5,89c-3.8,0-7.2,0.1-10.5-0.1c-0.6,0-1.2-0.7-1.6-1.2c-4.5-6.5-8.9-13.1-13.4-19.6 c-1.6-2.3-3.1-4.6-4.9-7.2c3.9,0,7.4,0.1,11-0.1c1.8-0.1,3.8-0.5,5.5-1.1c1.9-0.7,2.8-2.4,3.2-4.4c1-5.9-2.3-8.9-7.5-9 c-6.8-0.2-13.6-0.1-20.4-0.1c-1.2,0-1.8-0.4-2.4-1.3c-1.2-1.8-2.4-3.6-3.8-5.5c0.5-0.1,0.8-0.2,1.1-0.2c9.3,0,18.5-0.1,27.8,0.1 c3.8,0.1,7.7,0.6,10.6,3.4c1.5,1.4,2.5,3.4,3.7,5c3.1,4.2,1.4,8.4-0.2,12.4c-1.7,4.3-5.4,6.2-9.7,7.2c-1,0.2-1.9,0.5-3.1,0.8 C206.8,75,211.5,81.8,216.5,89z M208.8,87.1c-0.8-0.4-1.5-0.9-2.2-1.2c-0.5-0.2-1.1-0.2-1.9-0.3c1.3,0.9,2.2,1.5,3.2,2.2 C208.2,87.6,208.6,87.3,208.8,87.1z" class="st1"/><path d="M386,39.3c0.3,2.3,0.6,4.4,0.9,6.8c-3.4,0-6.7,0-10.1,0c-2.5,0-4.9,0-7.4,0c-0.9,0-1.5,0.4-1.4,1.4 c0,0.6,0.1,1.1,0,1.7c-0.1,1-0.2,2-0.2,3c0.1,2,0.2,3.9,0.2,5.9c-0.1,9.5-0.2,19.1-0.3,28.6c0,2.1,0,2.2-2.2,2.2 c-1.8,0-3.6-0.1-5.4,0c-1.1,0-1.6-0.4-1.6-1.6c0.1-4.6,0.3-9.2,0.2-13.9c-0.1-8.7-0.2-17.4-0.3-26.1c0-1-0.4-1.4-1.4-1.4 c-2,0.1-4,0.1-6,0c-0.6,0-1.3-0.1-1.7-0.5c-2.1-1.9-4.2-3.9-6.3-5.9c0.1-0.1,0.2-0.2,0.3-0.4C357.6,39.3,371.8,39.3,386,39.3z M361.9,87c0.5,1.1,2.8,1.9,4.3,1.3c0.4-0.1,0.6-0.8,0.9-1.3C365.1,87,363.6,87,361.9,87z" class="st1"/><path d="M110.3,59.8c0.8,0,1.3-0.1,1.9-0.1c10.8,0,21.6,0,32.3,0c1.5,0,1.9,0.5,1.8,1.8c-0.1,1.2-0.1,2.5,0,3.7 c0.1,1.3-0.4,1.6-1.6,1.6c-7.1-0.1-14.3,0-21.4,0c-3.7,0-3.7,0-3.7,3.6c0,5.6-0.1,11.3,0,16.9c0,1.3-0.4,1.8-1.7,1.7 c-2.1-0.1-4.1,0-6.2-0.1c-0.4,0-1.2-0.7-1.2-1.1C110.3,78.6,110.3,69.3,110.3,59.8z M111.5,76c-0.1,0-0.2,0-0.3,0.1 c-0.1,0.6-0.3,1.3-0.2,1.9c0.1,0.7,0.3,1.4,0.6,2.1c0.1,0.1,0.7,0.2,0.8,0.1c0.2-0.2,0.5-0.7,0.4-0.9 C112.4,78.1,111.9,77.1,111.5,76z" class="st1"/><path d="M153,39.2c0.1,2,0.2,3.9,0.3,5.8c0.1,1.1-0.6,1.1-1.4,1.1c-4,0-7.9,0-11.9,0c-6.1,0-12.3,0-18.4-0.1 c-0.9,0-1.9-0.5-2.6-1.1c-1.9-1.8-3.7-3.7-5.7-5.7C126.6,39.2,139.8,39.2,153,39.2z" class="st1"/><path d="M171,88.6c0-9.5,0-18.4,0-27.7c2.8,0,5.6,0,8.3,0.1c0.3,0,0.7,0.8,0.7,1.2c0.1,2.8,0,5.6,0,8.4 c0,3.6,0,7.3-0.1,10.9c0,0.7-0.5,1.7-1.1,2.1C176.4,85.2,173.8,86.7,171,88.6z M178.6,73.5c-1.6,0.7-1.7,1.8-1.4,2.9 c0.1,0.5,0.6,0.9,0.9,1.3c0.2-0.1,0.3-0.2,0.5-0.3C178.6,76.3,178.6,75,178.6,73.5z" class="st1"/><path d="M218.9,16.2c3.8,0,7.5,0,11.3,0c0.1,0.1,0.2,0.2,0.3,0.3c-0.3,0.3-0.6,0.8-1,1c-0.2,0.2-0.6,0.2-1,0.2 c-3.4,0.3-3.4,0.3-3.4,3.8c0,2.3-0.1,4.7,0,7c0.1,1.4-0.7,1.3-1.7,1.4c-1.2,0.1-1.2-0.6-1.2-1.5c0.1-3.1,0.1-6.2,0-9.4 c0-0.4-0.6-1-1-1.3c-0.8-0.5-1.8-0.8-2.7-1.1C218.7,16.5,218.8,16.3,218.9,16.2z" class="st1"/><path d="M277.5,22c2,0,3.8,0,5.6,0c1.4,0,1.4,0,1.2,1.7c-0.7,0-1.5,0.1-2.3,0.1c-1.5-0.1-2,0.6-2,2.1 c0,1.6,0.5,2.1,2,2.1c1.7,0,3.5,0,5.2,0.1c0.4,0,0.7,0.6,1.1,0.9c-0.3,0.3-0.7,0.9-1,0.9c-3,0.1-5.9,0.1-8.9,0 c-0.3,0-0.9-0.6-0.9-0.9C277.5,26.7,277.5,24.4,277.5,22z" class="st1"/><path d="M257.7,16.2c0.9,0,1.6,0,2.6,0c0,4.1,0,8.2,0,12.3c0,2.1-1.4,1.3-2.6,1.4c0-1.7-0.1-3.3,0-4.9 c0.1-1.3-0.2-1.9-1.8-1.9c-1.1,0-2.2-0.6-3.2-0.9c0-0.2,0.1-0.5,0.1-0.7c1,0,2-0.1,3,0c1.4,0.2,1.9-0.5,1.8-1.8 C257.6,18.5,257.7,17.4,257.7,16.2z" class="st1"/><path d="M247,29.3c0-4.2,0-8.3,0-12.5c2.5,1,2.6,3.1,2.6,5.3c0,1.4,0.3,2.8-0.1,4.1c-0.3,1.2-1.3,2.3-2,3.4 C247.3,29.5,247.2,29.4,247,29.3z" class="st1"/><path d="M278.3,16.1c3,0,6.1,0,9.1,0c0.3,0,0.8,0.5,0.8,0.7c0,0.3-0.4,0.9-0.7,0.9c-2.6,0.1-5.1,0.1-7.7,0 c-0.6,0-1.1-0.8-1.7-1.2C278.2,16.4,278.2,16.2,278.3,16.1z" class="st1"/></g></svg>